<svg width="69" height="69" viewBox="0 0 69 69" fill="none" xmlns="http://www.w3.org/2000/svg">
<circle cx="34.5" cy="34.5" r="34.5" fill="#916DDE" fill-opacity="0.73"/>
<path d="M46 28.1749H39.1M27.6 28.1749H23M46 40.8249H41.4M29.9 40.8249H23M32.2 32.1999C32.7286 32.1999 33.252 32.0958 33.7403 31.8935C34.2286 31.6912 34.6723 31.3948 35.0461 31.021C35.4199 30.6473 35.7163 30.2035 35.9186 29.7152C36.1209 29.2269 36.225 28.7035 36.225 28.1749C36.225 27.6463 36.1209 27.1229 35.9186 26.6346C35.7163 26.1463 35.4199 25.7026 35.0461 25.3288C34.6723 24.955 34.2286 24.6586 33.7403 24.4563C33.252 24.254 32.7286 24.1499 32.2 24.1499C31.1325 24.1499 30.1087 24.574 29.3539 25.3288C28.5991 26.0836 28.175 27.1074 28.175 28.1749C28.175 29.2424 28.5991 30.2662 29.3539 31.021C30.1087 31.7758 31.1325 32.1999 32.2 32.1999V32.1999ZM36.8 44.8499C37.8675 44.8499 38.8913 44.4258 39.6461 43.671C40.4009 42.9162 40.825 41.8924 40.825 40.8249C40.825 39.7574 40.4009 38.7336 39.6461 37.9788C38.8913 37.224 37.8675 36.7999 36.8 36.7999C35.7325 36.7999 34.7087 37.224 33.9539 37.9788C33.1991 38.7336 32.775 39.7574 32.775 40.8249C32.775 41.8924 33.1991 42.9162 33.9539 43.671C34.7087 44.4258 35.7325 44.8499 36.8 44.8499V44.8499Z" stroke="white" stroke-width="2.5" stroke-miterlimit="10" stroke-linecap="round" stroke-linejoin="round"/>
</svg>
