<svg width="107" height="107" viewBox="0 0 107 107" fill="none" xmlns="http://www.w3.org/2000/svg">
<circle opacity="0.1" cx="53.8373" cy="53.3127" r="53.025" fill="#9747FF"/>
<path d="M58.6267 80.4219C65.8472 74.0672 78.6934 61.0843 78.6934 49.1703C78.6934 42.5782 76.0747 36.2561 71.4134 31.5948C66.7521 26.9335 60.43 24.3148 53.8379 24.3148C47.2458 24.3148 40.9237 26.9335 36.2624 31.5948C31.6011 36.2561 28.9824 42.5782 28.9824 49.1703C28.9824 61.0843 41.8244 74.0672 49.0491 80.4219C50.3669 81.5981 52.0715 82.2482 53.8379 82.2482C55.6043 82.2482 57.3089 81.5981 58.6267 80.4219ZM45.5527 49.1703C45.5527 46.9729 46.4256 44.8656 47.9794 43.3118C49.5332 41.758 51.6405 40.8851 53.8379 40.8851C56.0353 40.8851 58.1426 41.758 59.6964 43.3118C61.2501 44.8656 62.123 46.9729 62.123 49.1703C62.123 51.3676 61.2501 53.475 59.6964 55.0288C58.1426 56.5825 56.0353 57.4554 53.8379 57.4554C51.6405 57.4554 49.5332 56.5825 47.9794 55.0288C46.4256 53.475 45.5527 51.3676 45.5527 49.1703Z" fill="#9747FF"/>
</svg>
