<svg width="107" height="107" viewBox="0 0 107 107" fill="none" xmlns="http://www.w3.org/2000/svg">
<circle cx="53.349" cy="53.3128" r="51.3145" fill="white" stroke="#9747FF" stroke-width="3.42097"/>
<path d="M33.015 75.5491C31.5516 75.5491 30.2984 75.0276 29.2553 73.9845C28.2123 72.9415 27.6917 71.6892 27.6935 70.2276V37.0347C27.6935 36.4138 27.7937 35.8152 27.9942 35.2387C28.1946 34.6622 28.4935 34.13 28.8908 33.6422L32.2168 29.5846C32.7046 28.9637 33.3139 28.4866 34.0447 28.1531C34.7755 27.8196 35.5409 27.6538 36.3409 27.6555H66.9396C67.7378 27.6555 68.5032 27.8223 69.2358 28.1558C69.9684 28.4892 70.5777 28.9655 71.0637 29.5846L74.3897 33.6422C74.7888 34.13 75.0886 34.6622 75.289 35.2387C75.4895 35.8152 75.5888 36.4138 75.587 37.0347V50.0724C74.7444 49.7619 73.8797 49.5065 72.9928 49.3061C72.1059 49.1056 71.1968 49.0072 70.2655 49.0107C68.8021 49.0107 67.3937 49.1775 66.0402 49.5109C64.6868 49.8444 63.4345 50.3642 62.2833 51.0701V40.9593H40.9972V62.2453L51.6403 56.9238L55.4983 58.8528C55.1436 59.7841 54.8553 60.7491 54.6336 61.7477C54.4119 62.7464 54.301 63.7761 54.301 64.8369C54.301 66.8324 54.6558 68.7508 55.3653 70.5921C56.0748 72.4333 57.0948 74.0857 58.4252 75.5491H33.015ZM67.6048 75.5491V67.5668H59.6225V62.2453H67.6048V54.2631H72.9263V62.2453H80.9085V67.5668H72.9263V75.5491H67.6048ZM34.0793 35.6378H69.2012L66.9396 32.977H36.3409L34.0793 35.6378Z" fill="#9747FF"/>
</svg>
