<svg width="29" height="27" viewBox="0 0 29 27" fill="none" xmlns="http://www.w3.org/2000/svg">
<path d="M27.4167 25.7451L24.8333 23.3137M13.8542 24.5294C15.4656 24.5294 17.0612 24.2307 18.55 23.6503C20.0388 23.0699 21.3915 22.2192 22.531 21.1468C23.6704 20.0744 24.5743 18.8012 25.1909 17.4C25.8076 15.9988 26.125 14.4971 26.125 12.9804C26.125 11.4638 25.8076 9.96199 25.1909 8.5608C24.5743 7.15961 23.6704 5.88645 22.531 4.81403C21.3915 3.7416 20.0388 2.89091 18.55 2.31051C17.0612 1.73012 15.4656 1.4314 13.8542 1.4314C10.5997 1.4314 7.4786 2.64816 5.17738 4.81403C2.87615 6.97989 1.58333 9.91743 1.58333 12.9804C1.58333 16.0434 2.87615 18.9809 5.17738 21.1468C7.4786 23.3127 10.5997 24.5294 13.8542 24.5294V24.5294Z" stroke="black" stroke-opacity="0.57" stroke-width="1.5" stroke-linecap="round" stroke-linejoin="round"/>
</svg>
